<svg height="512pt" viewBox="0 -81 512.00081 512" width="512pt" xmlns="http://www.w3.org/2000/svg"><path d="m291.167969 173.988281-89.605469-41.84375c-10.429688-4.867187-14.9375-17.273437-10.066406-27.703125 4.871094-10.429687 17.277344-14.9375 27.703125-10.066406l78.957031 36.871094 52.691406-35.300782c9.566406-6.40625 22.511719-3.847656 28.917969 5.714844s3.847656 22.511719-5.714844 28.917969l-62.460937 41.84375c-5.972656 4-13.710938 4.699219-20.421875 1.566406zm0 0" fill="#ffab8f"/><path d="m286.691406 125.890625-67.492187-31.515625c-10.425781-4.871094-22.832031-.363281-27.703125 10.066406-4.871094 10.429688-.363282 22.835938 10.066406 27.703125l69.128906 32.28125zm0 0" fill="#4699f2"/><path d="m407.90625 156.453125-32.75-27.09375c-2.667969-2.207031-3.042969-6.160156-.832031-8.828125l16.476562-19.914062c2.207031-2.667969 6.160157-3.042969 8.828125-.835938l32.746094 27.09375c2.667969 2.207031 3.042969 6.160156.835938 8.828125l-16.476563 19.914063c-2.207031 2.667968-6.160156 3.042968-8.828125.835937zm0 0" fill="#415050"/><path d="m369.613281 131.328125-33.0625-27.355469c-2.582031-2.132812-2.941406-5.957031-.808593-8.539062l23.175781-28.015625c2.136719-2.582031 5.960937-2.941407 8.542969-.804688l33.0625 27.351563c2.582031 2.136718 2.941406 5.960937.804687 8.542968l-23.175781 28.011719c-2.136719 2.582031-5.957032 2.941407-8.539063.808594zm0 0" fill="#55696e"/><path d="m363.542969 58.878906-12.183594-10.078125 9.609375-11.613281c1.335938-1.617188 3.734375-1.84375 5.351562-.503906l6.324219 5.234375c1.617188 1.335937 1.84375 3.734375.507813 5.351562zm0 0" fill="#fa503c"/><path d="m340.5 123.261719-32.984375-27.289063c-4.277344-3.539062-4.875-9.871094-1.335937-14.148437l33.835937-40.894531c3.535156-4.277344 9.871094-4.875 14.148437-1.339844l32.980469 27.289062c4.277344 3.539063 4.875 9.871094 1.339844 14.148438l-33.835937 40.894531c-3.539063 4.277344-9.871094 4.878906-14.148438 1.339844zm0 0" fill="#3c4646"/><path d="m211.910156 350.164062h-133.898437c-14.386719 0-26.050781-11.664062-26.050781-26.054687 0-14.386719 11.664062-26.054687 26.050781-26.054687h78.535156l-52.859375-63.902344c-9.171875-11.089844-7.617188-27.511719 3.46875-36.683594 11.09375-9.175781 27.511719-7.617188 36.683594 3.46875l88.148437 106.566406c13.992188 16.921875 1.980469 42.660156-20.078125 42.660156zm0 0" fill="#414b82"/><path d="m147.460938 350.164062h-121.40625c-14.390626 0-26.054688-11.664062-26.054688-26.050781 0-14.390625 11.664062-26.054687 26.054688-26.054687h74.554687l-41.464844-66.765625c-7.59375-12.226563-3.835937-28.289063 8.386719-35.878907 12.222656-7.59375 28.285156-3.839843 35.878906 8.386719l66.183594 106.5625c4.988281 8.035157 5.234375 18.144531.636719 26.410157-4.597657 8.265624-13.3125 13.390624-22.769531 13.390624zm0 0" fill="#5f6e9b"/><path d="m317.039062 46.867188c0 25.882812-20.980468 46.867187-46.867187 46.867187-25.882813 0-46.863281-20.984375-46.863281-46.867187 0-25.882813 20.980468-46.867188 46.863281-46.867188 25.886719 0 46.867187 20.984375 46.867187 46.867188zm0 0" fill="#ffab8f"/><path d="m98.566406 233.289062-32.253906-37.070312 103.8125-109.972656c5.785156-6.128906 13.773438-9.695313 22.199219-9.914063 8.425781-.222656 16.589843 2.925781 22.683593 8.746094l40.710938 38.863281c12.648438 12.074219 13.113281 32.113282 1.039062 44.761719l-63.738281 66.769531c-25.984375 27.222656-69.75 26.210938-94.453125-2.183594zm0 0" fill="#64afff"/><path d="m266.683594 151.324219-62.117188-18.046875c-11.054687-3.214844-17.410156-14.777344-14.199218-25.832032 3.210937-11.054687 14.78125-17.410156 25.832031-14.199218l50.382812 14.640625 47.273438-46.546875c8.203125-8.074219 21.398437-7.972656 29.472656.230468 8.078125 8.199219 7.976563 21.398438-.226563 29.472657l-55.976562 55.121093c-5.375 5.292969-13.195312 7.265626-20.441406 5.160157zm0 0" fill="#ffb69e"/><path d="m256.648438 105-40.453126-11.757812c-11.050781-3.207032-22.617187 3.148437-25.828124 14.203124-3.210938 11.054688 3.144531 22.617188 14.199218 25.828126l41.933594 12.1875zm0 0" fill="#4699f2"/><path d="m452.648438 338.964844c-2.289063 0-4.371094-1.558594-4.941407-3.886719-18.46875-75.496094 2.191407-133.210937 3.082031-135.632813.96875-2.640624 3.898438-3.992187 6.535157-3.023437 2.640625.964844 3.992187 3.890625 3.027343 6.53125-.207031.5625-20.445312 57.371094-2.753906 129.707031.667969 2.730469-1.003906 5.488282-3.734375 6.15625-.40625.101563-.8125.148438-1.214843.148438zm0 0" fill="#3c5a73"/><path d="m473.199219 198.496094c-3.664063 10.828125-13.941407 17.773437-19.40625 20.808594-1.917969 1.066406-4.351563.246093-5.230469-1.769532-2.5-5.726562-6.457031-17.488281-2.792969-28.316406 3.652344-10.796875 13.878907-17.730469 19.355469-20.78125 1.957031-1.09375 4.410156-.261719 5.304688 1.792969 2.5 5.746093 6.421874 17.46875 2.769531 28.265625zm0 0" fill="#fa503c"/><path d="m510.046875 184.761719c-2.011719-1.332031-4.722656-.785157-6.058594 1.226562-7.359375 11.09375-14.195312 22.324219-20.804687 33.816407-12.84375 22.421874-25.804688 47.984374-34.28125 72.507812-.75 2.1875-1.464844 4.398438-2.160156 6.625-3.636719-5.042969-7.503907-9.914062-11.675782-14.527344-12.09375-13.480468-26.121094-24.527344-42.730468-31.757812-2.164063-.945313-4.757813-.203125-6.0625 1.851562-1.449219 2.273438-.78125 5.289063 1.492187 6.738282l.09375.058593c13.679687 8.710938 24.476563 20.292969 33.304687 33.898438 4.367188 6.667969 8.148438 13.730469 11.449219 20.96875 5.132813 11.316406 7.859375 20.929687 7.984375 21.792969.792969 5.40625 5.148438 9.824218 10.835938 10.441406 6.75.734375 12.820312-4.144532 13.554687-10.894532l.398438-3.65625c-.726563-11.34375 1.414062-24.507812 3.964843-35.640624 5.523438-24.039063 15.488282-50.105469 25.355469-72.582032 5.230469-11.855468 10.8125-23.6875 16.765625-35.140625l.046875-.089843c1.003907-1.953126.402344-4.390626-1.472656-5.636719zm0 0" fill="#61c66f"/><path d="m503.65625 350.164062h-118.742188c-3.9375 0-7.128906-3.191406-7.128906-7.128906s3.191406-7.128906 7.128906-7.128906h118.742188c3.9375 0 7.128906 3.191406 7.128906 7.128906s-3.191406 7.128906-7.128906 7.128906zm0 0" fill="#7f4d32"/></svg>